<svg data-v-423bf9ae="" xmlns="http://www.w3.org/2000/svg" viewBox="0 0 248.74694214968983 163" class="iconAbove"><!----><!----><!----><g data-v-423bf9ae="" id="6feaf0ed-a6f9-479b-aa0a-6cb30fa8ad49" fill="black" transform="matrix(4.9140052824657,0,0,4.9140052824657,-0.0000026757970630342243,88.55282561888069)"><path d="M2.36 5.61L2.36 10.96Q2.36 11.12 2.35 11.32Q2.35 11.52 2.37 11.72Q2.38 11.92 2.42 12.11Q2.46 12.30 2.55 12.44Q2.65 12.59 2.80 12.68Q2.95 12.77 3.17 12.77L3.17 12.77Q3.20 12.77 3.20 12.79L3.20 12.79Q3.20 12.80 3.17 12.80L3.17 12.80L2.36 12.80Q1.83 12.80 1.52 12.67Q1.21 12.54 1.05 12.30Q0.90 12.07 0.85 11.72Q0.81 11.38 0.81 10.96L0.81 10.96L0.81 5.61L0 5.61L0 5.27L0.81 5.27L0.81 4.59Q0.81 4.13 0.89 3.81Q0.97 3.50 1.16 3.31Q1.34 3.12 1.63 3.04Q1.93 2.95 2.36 2.95L2.36 2.95L2.36 5.27L3.84 5.27L3.84 5.61L2.36 5.61ZM7.33 5.63L7.33 5.63Q6.62 5.63 6.33 5.98Q6.04 6.34 6.04 7.12L6.04 7.12L6.04 7.77L8.63 7.77L8.63 7.12Q8.63 6.73 8.57 6.45Q8.50 6.17 8.34 5.98Q8.19 5.80 7.94 5.71Q7.70 5.63 7.33 5.63ZM10.15 8.11L6.04 8.11L6.04 10.95Q6.04 11.38 6.12 11.67Q6.20 11.96 6.38 12.14Q6.56 12.32 6.86 12.40Q7.16 12.48 7.59 12.48L7.59 12.48L7.66 12.48Q8.09 12.48 8.39 12.40Q8.68 12.32 8.87 12.14Q9.05 11.96 9.13 11.67Q9.21 11.38 9.21 10.95L9.21 10.95L9.21 10.30L9.60 10.30L9.60 11.29Q9.60 11.51 9.55 11.78Q9.50 12.04 9.34 12.27Q9.19 12.50 8.89 12.65Q8.59 12.80 8.08 12.80L8.08 12.80L6.04 12.80Q5.76 12.80 5.49 12.67Q5.22 12.54 5.01 12.33Q4.79 12.11 4.66 11.84Q4.53 11.57 4.53 11.29L4.53 11.29L4.53 6.79Q4.53 6.49 4.65 6.22Q4.77 5.95 4.98 5.75Q5.20 5.54 5.47 5.42Q5.74 5.29 6.04 5.27L6.04 5.27L8.63 5.27Q8.95 5.27 9.23 5.39Q9.50 5.51 9.71 5.72Q9.91 5.93 10.03 6.20Q10.15 6.48 10.15 6.79L10.15 6.79L10.15 8.11ZM19.72 5.27L19.72 5.27Q20.03 5.27 20.31 5.39Q20.59 5.51 20.80 5.72Q21.01 5.93 21.14 6.21Q21.27 6.49 21.27 6.80L21.27 6.80L21.27 11.20Q21.27 11.65 21.19 11.96Q21.12 12.26 20.95 12.45Q20.77 12.64 20.47 12.72Q20.17 12.80 19.72 12.80L19.72 12.80L19.72 7.13Q19.72 6.34 19.42 5.98Q19.11 5.62 18.45 5.62L18.45 5.62L17.18 5.62L17.18 11.20Q17.18 11.56 17.13 11.83Q17.08 12.09 16.98 12.28Q16.87 12.47 16.69 12.58Q16.51 12.70 16.24 12.76L16.24 12.76Q16.06 12.79 15.79 12.80L15.79 12.80L15.62 12.80L15.62 7.05Q15.61 6.31 15.30 5.96Q14.99 5.62 14.35 5.62L14.35 5.62L13.08 5.62L13.08 11.20Q13.08 11.65 13.01 11.96Q12.93 12.26 12.75 12.45Q12.57 12.64 12.27 12.72Q11.97 12.80 11.52 12.80L11.52 12.80L11.52 5.27L19.72 5.27ZM22.96 15.15L22.96 5.27L27.06 5.27Q27.36 5.27 27.64 5.39Q27.92 5.51 28.13 5.72Q28.33 5.93 28.45 6.21Q28.57 6.49 28.57 6.80L28.57 6.80L28.57 11.28Q28.57 11.60 28.45 11.88Q28.33 12.16 28.13 12.37Q27.92 12.57 27.64 12.69Q27.36 12.81 27.06 12.81L27.06 12.81L24.50 12.81L24.50 13.52Q24.50 13.98 24.42 14.29Q24.34 14.60 24.16 14.79Q23.97 14.98 23.68 15.07Q23.39 15.15 22.96 15.15L22.96 15.15ZM24.50 5.62L24.50 12.47L25.51 12.47Q25.94 12.47 26.24 12.39Q26.53 12.31 26.71 12.13Q26.90 11.96 26.98 11.67Q27.06 11.38 27.06 10.95L27.06 10.95L27.06 7.14Q27.06 6.36 26.77 5.99Q26.48 5.62 25.79 5.62L25.79 5.62L24.50 5.62ZM31.85 2.94L31.85 2.94L31.85 10.94Q31.85 11.22 31.85 11.55Q31.85 11.87 31.93 12.14Q32.01 12.41 32.19 12.58Q32.38 12.76 32.75 12.76L32.75 12.76Q32.77 12.76 32.77 12.78L32.77 12.78Q32.77 12.80 32.75 12.80L32.75 12.80L31.83 12.80Q31.29 12.80 30.99 12.68Q30.69 12.56 30.53 12.36Q30.38 12.15 30.34 11.87Q30.30 11.59 30.30 11.27L30.30 11.27L30.30 4.57Q30.30 4.12 30.39 3.80Q30.47 3.49 30.65 3.29Q30.83 3.10 31.12 3.02Q31.42 2.94 31.85 2.94ZM35.31 7.79L37.91 7.79L37.91 7.14Q37.91 6.32 37.52 5.97Q37.13 5.63 36.32 5.63L36.32 5.63Q35.92 5.63 35.63 5.70Q35.35 5.78 35.17 5.96Q34.99 6.15 34.91 6.43Q34.84 6.72 34.84 7.14L34.84 7.14L34.84 7.30L34.44 7.30L34.44 6.18Q34.44 5.87 34.46 5.69Q34.48 5.51 34.56 5.42Q34.64 5.33 34.81 5.31Q34.97 5.28 35.25 5.28L35.25 5.28L37.91 5.28Q38.19 5.28 38.46 5.42Q38.73 5.55 38.95 5.77Q39.16 5.98 39.29 6.25Q39.42 6.53 39.42 6.81L39.42 6.81L39.42 11.27Q39.42 11.58 39.30 11.85Q39.18 12.12 38.96 12.33Q38.75 12.53 38.48 12.66Q38.21 12.78 37.91 12.80L37.91 12.80L35.31 12.80Q34.99 12.80 34.72 12.68Q34.45 12.56 34.24 12.36Q34.04 12.15 33.92 11.87Q33.80 11.59 33.80 11.27L33.80 11.27L33.80 9.31Q33.80 9.00 33.92 8.72Q34.04 8.44 34.24 8.23Q34.45 8.03 34.72 7.91Q34.99 7.79 35.31 7.79L35.31 7.79ZM37.91 10.94L37.91 8.13L36.87 8.13Q36.44 8.13 36.14 8.21Q35.84 8.29 35.66 8.46Q35.47 8.64 35.39 8.93Q35.31 9.22 35.31 9.64L35.31 9.64L35.31 10.94Q35.31 11.33 35.38 11.60Q35.44 11.87 35.59 12.06Q35.75 12.24 35.99 12.33Q36.23 12.43 36.58 12.46L36.58 12.46Q36.95 12.43 37.20 12.34Q37.45 12.25 37.61 12.07Q37.78 11.89 37.84 11.61Q37.91 11.33 37.91 10.94L37.91 10.94ZM42.83 5.61L42.83 10.96Q42.83 11.12 42.82 11.32Q42.82 11.52 42.83 11.72Q42.85 11.92 42.89 12.11Q42.93 12.30 43.02 12.44Q43.11 12.59 43.26 12.68Q43.42 12.77 43.64 12.77L43.64 12.77Q43.67 12.77 43.67 12.79L43.67 12.79Q43.67 12.80 43.64 12.80L43.64 12.80L42.83 12.80Q42.29 12.80 41.99 12.67Q41.68 12.54 41.52 12.30Q41.36 12.07 41.32 11.72Q41.28 11.38 41.28 10.96L41.28 10.96L41.28 5.61L40.47 5.61L40.47 5.27L41.28 5.27L41.28 4.59Q41.28 4.13 41.36 3.81Q41.44 3.50 41.62 3.31Q41.81 3.12 42.10 3.04Q42.40 2.95 42.83 2.95L42.83 2.95L42.83 5.27L44.31 5.27L44.31 5.61L42.83 5.61ZM47.80 5.63L47.80 5.63Q47.09 5.63 46.80 5.98Q46.50 6.34 46.50 7.12L46.50 7.12L46.50 7.77L49.10 7.77L49.10 7.12Q49.10 6.73 49.03 6.45Q48.97 6.17 48.81 5.98Q48.66 5.80 48.41 5.71Q48.17 5.63 47.80 5.63ZM50.62 8.11L46.50 8.11L46.50 10.95Q46.50 11.38 46.59 11.67Q46.67 11.96 46.85 12.14Q47.03 12.32 47.33 12.40Q47.63 12.48 48.06 12.48L48.06 12.48L48.13 12.48Q48.56 12.48 48.86 12.40Q49.15 12.32 49.33 12.14Q49.52 11.96 49.60 11.67Q49.68 11.38 49.68 10.95L49.68 10.95L49.68 10.30L50.07 10.30L50.07 11.29Q50.07 11.51 50.02 11.78Q49.97 12.04 49.81 12.27Q49.66 12.50 49.36 12.65Q49.05 12.80 48.55 12.80L48.55 12.80L46.50 12.80Q46.23 12.80 45.96 12.67Q45.69 12.54 45.48 12.33Q45.26 12.11 45.13 11.84Q44.99 11.57 44.99 11.29L44.99 11.29L44.99 6.79Q44.99 6.49 45.12 6.22Q45.24 5.95 45.45 5.75Q45.66 5.54 45.93 5.42Q46.20 5.29 46.50 5.27L46.50 5.27L49.10 5.27Q49.42 5.27 49.69 5.39Q49.97 5.51 50.18 5.72Q50.38 5.93 50.50 6.20Q50.62 6.48 50.62 6.79L50.62 6.79L50.62 8.11Z"></path></g><!----><g data-v-423bf9ae="" id="e5939292-219b-4f97-a1db-50a87fd69d59" transform="matrix(4.5,0,0,4.5,79.99999666213989,0)" stroke="none" fill="black"><path d="M19 0H1C.4 0 0 .4 0 1v3.8c0 .1.1.2.2.2h19.6c.1 0 .2-.1.2-.2V1c0-.6-.4-1-1-1zM19.8 7H7.2c-.1 0-.2.1-.2.2v12.6c0 .1.1.2.2.2H19c.6 0 1-.4 1-1V7.2c0-.1-.1-.2-.2-.2zM4.8 7H.2c-.1 0-.2.1-.2.2V19c0 .6.4 1 1 1h3.8c.1 0 .2-.1.2-.2V7.2c0-.1-.1-.2-.2-.2z"></path></g><!----></svg>